<svg xmlns="http://www.w3.org/2000/svg" xmlns:xlink="http://www.w3.org/1999/xlink" version="1.1" width="500" height="500" viewBox="0 0 500 500" xml:space="preserve">
    <desc>Created with Fabric.js 3.6.3</desc>
    <defs></defs>
    <g transform="matrix(0.41444467676599633 -1.0151e-16 1.0151e-16 0.41444467676599633 250.47580434218324 197.61116919149913)"  >
    <path style="stroke: none; stroke-width: 0; stroke-dasharray: none; stroke-linecap: round; stroke-dashoffset: 0; stroke-linejoin: round; stroke-miterlimit: 4; fill: rgb(0,0,0); fill-rule: nonzero; opacity: 1;"  transform=" translate(-347.214464, -408.15557)" d="m 239.32338 158.15557 c -78.60067 0 -142.108912 63.50635 -142.108912 142.10701 l 0 215.78407 c 0 78.60067 63.508242 142.10892 142.108912 142.10892 l 215.78217 0 c 78.60067 0 142.10891 -63.50825 142.10891 -142.10892 l 0 -215.78407 c 0 -78.60066 -63.50824 -142.10701 -142.10891 -142.10701 l -215.78217 0 z" stroke-linecap="round" />
    </g>
        <g transform="matrix(1.4342541896840266 0 0 1.4342541896840266 250.47580434218327 197.61116919149913)"  >
    <path style="stroke: none; stroke-width: 0; stroke-dasharray: none; stroke-linecap: butt; stroke-dashoffset: 0; stroke-linejoin: miter; stroke-miterlimit: 4; fill: rgb(255,255,255); fill-rule: evenodd; opacity: 1;"  transform=" translate(-50.000253242596635, -50.00425904911092)" d="m 39.871 39.953 c 2.8984 -5.5781 6.6953 -10.797 11.121 -15.445 c -10.105 -4.375 -19.098 6.3203 -25.383 13.211 c 6.8398 0.023438 10.316 0.24609 14.258 2.2344 z m 7.1055 -6.6562 c 6.0938 -8.4141 14.34 -15.605 23.254 -20.203 c 3.9414 7.0039 9.6445 12.766 16.699 16.656 c -6.0234 11.688 -16.484 22.211 -28.359 28.289 l -16.602 -16.602 c 1.4062 -2.7461 3.0781 -5.4766 5.0078 -8.1406 z m 5.9141 -10.707 c 10.641 -10.367 26.004 -18.613 40.836 -17.484 c 0.64063 0.046875 1.1367 0.56641 1.1758 1.1914 c 1.0195 14.664 -6.75 29.801 -17.484 40.82 c 5.9102 11.586 -4.7188 21.254 -12.145 28 c -1.2344 1.125 -2.3789 2.1602 -3.3516 3.1367 c -0.87109 0.87109 -2.1719 0.23438 -2.1719 -1.1289 c 0 -7.9453 0 -11.621 -1.7578 -15.406 l -4.7461 4.7422 c -0.49609 0.49609 -1.3047 0.49609 -1.8047 0 l -17.898 -17.898 c -0.49609 -0.49609 -0.49609 -1.3047 0 -1.8047 l 4.7422 -4.7422 c -4.4961 -2.0859 -10.547 -1.7539 -15.406 -1.7539 c -1.707 0 -1.7578 -1.5469 -1.1289 -2.1758 c 0.97266 -0.97266 2.0117 -2.1172 3.1367 -3.3516 c 6.7461 -7.4219 16.414 -18.055 28 -12.145 z m 19.629 -10.613 c 3.6875 6.5 8.9844 11.859 15.523 15.488 c 3.0469 -6.625 4.6445 -13.723 4.3867 -19.883 c -6.8047 -0.28516 -13.762 1.5625 -19.906 4.3945 z m 2.9766 37.039 c -4.6484 4.4258 -9.8672 8.2266 -15.445 11.121 c 1.9883 3.9453 2.2109 7.4219 2.2344 14.258 c 6.8906 -6.2812 17.586 -15.273 13.211 -25.379 z m -18.988 10.574 l -16.094 -16.094 l -4.1641 4.1641 l 16.094 16.094 z m -32.223 16.129 l 18.168 -7.2773 l -10.887 -10.887 l -7.2773 18.168 z m -1.8125 3.4648 l 22.719 -9.1016 c 0.85156 -0.33984 1.0586 -1.4492 0.42578 -2.0781 l -13.613 -13.617 c -0.625 -0.625 -1.7617 -0.47656 -2.1172 0.51172 l -9.0703 22.633 c -0.42188 1.0508 0.64844 2.0586 1.6523 1.6523 z m 48.477 -50.129 c -3.2969 -3.2969 -8.6406 -3.2969 -11.934 0 c -5.3008 5.3008 -1.5312 14.406 5.9688 14.406 c 7.4961 0 11.27 -9.1055 5.9688 -14.406 z m -0.078125 5.9688 c 0 -5.2344 -6.3555 -7.8594 -10.055 -4.1641 c -3.6953 3.6953 -1.0703 10.055 4.1641 10.055 c 3.2539 0 5.8906 -2.6367 5.8906 -5.8906 z m -48.168 13.809 l -14.938 14.938 c -1.1875 1.1875 0.61719 2.9883 1.8047 1.8047 l 14.938 -14.938 c 1.1875 -1.1875 -0.61719 -2.9883 -1.8047 -1.8047 z m -9.3555 -2.9297 c 1.1875 -1.1875 2.9883 0.61719 1.8047 1.8047 l -7.7461 7.7461 c -1.1875 1.1875 -2.9883 -0.61719 -1.8047 -1.8047 z m 3.375 18.293 c 1.1875 -1.1875 2.9883 0.61719 1.8047 1.8047 l -11.328 11.328 c -1.1875 1.1875 -2.9883 -0.61719 -1.8047 -1.8047 z m 32.652 11.309 l -14.938 14.938 c -1.1875 1.1875 0.61719 2.9883 1.8047 1.8047 l 14.938 -14.938 c 1.1875 -1.1875 -0.61719 -2.9883 -1.8047 -1.8047 z m 2.9297 9.3555 c 1.1875 -1.1875 2.9883 0.61719 1.8047 1.8047 l -7.7461 7.7461 c -1.1875 1.1875 -2.9883 -0.61719 -1.8047 -1.8047 z m -18.293 -3.375 c 1.1875 -1.1875 2.9883 0.61719 1.8047 1.8047 l -11.328 11.328 c -1.1875 1.1875 -2.9883 -0.61719 -1.8047 -1.8047 z" stroke-linecap="round" />
    </g>
    <g transform="matrix(1 0 0 1 250.36228098075287 348.4053178473597)" style=""  ><path fill="#000000" opacity="1" d="M-115.83 5.53L-115.83 5.53Q-115.83 8.08-116.73 9.81Q-117.63 11.54-119.18 12.61Q-120.72 13.69-122.78 14.16Q-124.83 14.62-127.14 14.62L-127.14 14.62Q-129.57 14.62-131.40 14.17Q-133.23 13.71-134.60 12.93Q-135.97 12.15-136.94 11.10Q-137.90 10.06-138.62 8.86L-138.62 8.86L-134.62 5.97Q-134.08 6.82-133.41 7.57Q-132.75 8.32-131.87 8.88Q-130.99 9.45-129.81 9.79Q-128.64 10.12-127.09 10.12L-127.09 10.12Q-125.94 10.12-124.84 9.90Q-123.74 9.69-122.90 9.19Q-122.05 8.69-121.54 7.88Q-121.03 7.08-121.03 5.88L-121.03 5.88Q-121.03 4.75-121.51 3.99Q-122.00 3.23-122.83 2.70Q-123.66 2.18-124.77 1.83Q-125.88 1.49-127.14 1.16L-127.14 1.16Q-129.44 0.57-131.42-0.05Q-133.40-0.67-134.86-1.62Q-136.32-2.58-137.15-4.06Q-137.99-5.54-137.99-7.84L-137.99-7.84Q-137.99-9.89-137.30-11.53Q-136.60-13.17-135.25-14.34Q-133.90-15.50-131.89-16.12Q-129.88-16.74-127.27-16.74L-127.27-16.74Q-125.31-16.74-123.69-16.38Q-122.07-16.02-120.75-15.34Q-119.44-14.65-118.39-13.64Q-117.35-12.63-116.57-11.35L-116.57-11.35L-120.50-8.41Q-121.70-10.32-123.33-11.28Q-124.96-12.24-127.31-12.24L-127.31-12.24Q-129.86-12.24-131.35-11.19Q-132.84-10.15-132.84-8.24L-132.84-8.24Q-132.84-7.28-132.43-6.64Q-132.03-6.00-131.19-5.52Q-130.36-5.04-129.08-4.66Q-127.81-4.28-126.07-3.86L-126.07-3.86Q-124.72-3.54-123.45-3.17Q-122.18-2.80-121.04-2.31Q-119.89-1.82-118.94-1.16Q-117.98-0.49-117.29 0.44Q-116.61 1.38-116.22 2.63Q-115.83 3.88-115.83 5.53Z"/><path fill="#000000" opacity="1" d="M-99.23 10.17L-98.25 13.99Q-99.23 14.30-100.46 14.48Q-101.69 14.67-102.80 14.67L-102.80 14.67Q-104.67 14.67-105.98 14.22Q-107.30 13.78-108.14 12.85Q-108.97 11.93-109.37 10.49Q-109.76 9.06-109.76 7.10L-109.76 7.10L-109.76-5.02L-112.82-5.02L-112.82-8.82L-109.76-8.82L-109.76-15.17L-105.08-15.17L-105.08-8.82L-99.56-8.82L-99.56-5.02L-105.08-5.02L-105.08 6.38Q-105.08 7.60-104.94 8.44Q-104.80 9.27-104.47 9.80Q-104.15 10.32-103.61 10.56Q-103.08 10.80-102.32 10.80L-102.32 10.80Q-101.56 10.80-100.71 10.61Q-99.86 10.43-99.23 10.17L-99.23 10.17Z"/><path fill="#000000" opacity="1" d="M-76.43 13.99L-80.89 13.99L-80.89 11.41Q-82.50 12.84-84.30 13.75Q-86.09 14.67-88.20 14.67L-88.20 14.67Q-89.94 14.67-91.29 14.15Q-92.64 13.62-93.55 12.68Q-94.47 11.73-94.95 10.44Q-95.42 9.14-95.42 7.58L-95.42 7.58Q-95.42 5.51-94.74 4.12Q-94.05 2.73-92.85 1.85Q-91.64 0.96-89.97 0.52Q-88.31 0.07-86.33-0.12L-86.33-0.12L-81.11-0.62L-81.11-1.69Q-81.11-2.82-81.45-3.57Q-81.79-4.32-82.43-4.78Q-83.07-5.23-84.02-5.42Q-84.96-5.60-86.16-5.60L-86.16-5.60Q-87.31-5.60-88.17-5.39Q-89.03-5.17-89.66-4.82Q-90.29-4.47-90.70-4.03Q-91.12-3.58-91.36-3.15L-91.36-3.15L-95.05-5.52Q-94.64-6.26-93.91-6.96Q-93.18-7.67-92.10-8.23Q-91.01-8.78-89.52-9.13Q-88.03-9.48-86.07-9.48L-86.07-9.48Q-83.68-9.48-81.87-9.08Q-80.07-8.69-78.86-7.78Q-77.65-6.87-77.04-5.33Q-76.43-3.80-76.43-1.51L-76.43-1.51L-76.43 13.99ZM-81.11 7.88L-81.11 2.90L-84.37 3.21Q-85.87 3.34-87.04 3.62Q-88.20 3.90-89.00 4.40Q-89.79 4.90-90.20 5.65Q-90.62 6.40-90.62 7.49L-90.62 7.49Q-90.62 9.30-89.66 10.05Q-88.70 10.80-86.96 10.80L-86.96 10.80Q-86.29 10.80-85.56 10.56Q-84.83 10.32-84.08 9.93Q-83.33 9.53-82.58 9.00Q-81.83 8.47-81.11 7.88L-81.11 7.88Z"/><path fill="#000000" opacity="1" d="M-55.77-8.71L-56.71-4.23Q-57.05-4.36-57.61-4.47Q-58.16-4.58-58.75-4.58L-58.75-4.58Q-59.71-4.58-60.56-4.32Q-61.40-4.06-62.18-3.61Q-62.95-3.17-63.67-2.56Q-64.38-1.95-65.08-1.28L-65.08-1.28L-65.08 13.99L-69.76 13.99L-69.76-8.82L-65.08-8.82L-65.08-5.34Q-64.34-6.13-63.56-6.82Q-62.77-7.52-61.92-8.04Q-61.06-8.56-60.12-8.87Q-59.19-9.17-58.14-9.17L-58.14-9.17Q-57.34-9.17-56.76-9.05Q-56.18-8.93-55.77-8.71L-55.77-8.71Z"/><path fill="#000000" opacity="1" d="M-40.81 10.17L-39.83 13.99Q-40.81 14.30-42.03 14.48Q-43.26 14.67-44.37 14.67L-44.37 14.67Q-46.24 14.67-47.56 14.22Q-48.88 13.78-49.71 12.85Q-50.55 11.93-50.94 10.49Q-51.33 9.06-51.33 7.10L-51.33 7.10L-51.33-5.02L-54.40-5.02L-54.40-8.82L-51.33-8.82L-51.33-15.17L-46.66-15.17L-46.66-8.82L-41.13-8.82L-41.13-5.02L-46.66-5.02L-46.66 6.38Q-46.66 7.60-46.52 8.44Q-46.37 9.27-46.05 9.80Q-45.72 10.32-45.19 10.56Q-44.66 10.80-43.89 10.80L-43.89 10.80Q-43.13 10.80-42.28 10.61Q-41.44 10.43-40.81 10.17L-40.81 10.17Z"/><path fill="#000000" opacity="1" d="M-30.76-14.83L-30.76-14.83Q-30.76-13.39-31.44-12.84Q-32.13-12.28-33.56-12.28L-33.56-12.28Q-35.13-12.28-35.73-12.93Q-36.32-13.59-36.32-14.83L-36.32-14.83Q-36.32-16.18-35.69-16.77Q-35.06-17.37-33.56-17.37L-33.56-17.37Q-32.06-17.37-31.41-16.78Q-30.76-16.20-30.76-14.83ZM-31.19 13.99L-35.87 13.99L-35.87-8.82L-31.19-8.82L-31.19 13.99Z"/><path fill="#000000" opacity="1" d="M-5.16 13.99L-9.83 13.99L-9.83 0.99Q-9.83-0.71-9.94-1.90Q-10.05-3.08-10.41-3.82Q-10.77-4.56-11.42-4.89Q-12.07-5.21-13.16-5.21L-13.16-5.21Q-13.88-5.21-14.69-4.93Q-15.51-4.65-16.35-4.16Q-17.18-3.67-18.03-3.03Q-18.88-2.38-19.66-1.69L-19.66-1.69L-19.66 13.99L-24.34 13.99L-24.34-8.82L-19.66-8.82L-19.66-5.65Q-18.92-6.39-18.01-7.08Q-17.10-7.78-16.09-8.31Q-15.07-8.85-14.00-9.16Q-12.92-9.48-11.83-9.48L-11.83-9.48Q-9.92-9.48-8.64-8.93Q-7.35-8.39-6.58-7.33Q-5.81-6.28-5.48-4.74Q-5.16-3.21-5.16-1.23L-5.16-1.23L-5.16 13.99Z"/><path fill="#000000" opacity="1" d="M19.36-8.82L11.25 13.99L6.81 13.99L-1.22-8.82L3.63-8.82L9.16 7.66L14.60-8.82L19.36-8.82Z"/><path fill="#000000" opacity="1" d="M42.09 3.58L27.08 3.58Q27.10 5.29 27.44 6.61Q27.78 7.93 28.49 8.81Q29.21 9.69 30.35 10.14Q31.50 10.60 33.17 10.60L33.17 10.60Q34.74 10.60 35.94 10.07Q37.15 9.53 38.17 8.25L38.17 8.25L41.76 10.69Q41.11 11.67 40.31 12.41Q39.50 13.15 38.43 13.65Q37.37 14.15 36.01 14.41Q34.65 14.67 32.91 14.67L32.91 14.67Q27.45 14.67 24.85 11.66Q22.25 8.64 22.25 2.77L22.25 2.77Q22.25 0.01 22.81-2.24Q23.36-4.49 24.59-6.10Q25.82-7.71 27.80-8.59Q29.78-9.48 32.65-9.48L32.65-9.48Q35.19-9.48 36.99-8.71Q38.78-7.95 39.91-6.56Q41.05-5.17 41.57-3.21Q42.09-1.25 42.09 1.12L42.09 1.12L42.09 3.58ZM27.17 0.14L37.46 0.14Q37.46-2.71 36.26-4.20Q35.06-5.69 32.50-5.69L32.50-5.69Q31.19-5.69 30.27-5.31Q29.34-4.93 28.72-4.19Q28.10-3.45 27.73-2.36Q27.36-1.28 27.17 0.14L27.17 0.14Z"/><path fill="#000000" opacity="1" d="M64.08 7.66L64.08 7.66Q64.08 9.56 63.35 10.88Q62.62 12.21 61.39 13.06Q60.16 13.91 58.55 14.29Q56.95 14.67 55.18 14.67L55.18 14.67Q53.40 14.67 51.95 14.36Q50.51 14.06 49.38 13.53Q48.24 12.99 47.43 12.25Q46.61 11.51 46.09 10.64L46.09 10.64L49.66 8.25Q50.59 9.62 51.96 10.21Q53.33 10.80 55.05 10.80L55.05 10.80Q55.90 10.80 56.71 10.67Q57.51 10.54 58.13 10.20Q58.75 9.86 59.13 9.30Q59.51 8.73 59.51 7.88L59.51 7.88Q59.51 7.23 59.23 6.77Q58.95 6.32 58.34 5.96Q57.73 5.60 56.76 5.28Q55.79 4.97 54.42 4.64L54.42 4.64Q52.88 4.25 51.46 3.75Q50.05 3.25 48.97 2.43Q47.90 1.62 47.24 0.39Q46.59-0.84 46.59-2.67L46.59-2.67Q46.59-4.12 47.14-5.36Q47.68-6.60 48.78-7.52Q49.88-8.43 51.50-8.95Q53.12-9.48 55.27-9.48L55.27-9.48Q56.77-9.48 58.09-9.19Q59.40-8.91 60.48-8.39Q61.56-7.87 62.38-7.14Q63.21-6.41 63.73-5.52L63.73-5.52L60.16-3.10Q59.84-3.58 59.38-4.04Q58.92-4.49 58.30-4.84Q57.68-5.19 56.91-5.40Q56.14-5.60 55.18-5.60L55.18-5.60Q53.36-5.60 52.27-4.90Q51.18-4.19 51.18-2.84L51.18-2.84Q51.18-2.21 51.41-1.78Q51.64-1.34 52.15-0.99Q52.66-0.64 53.49-0.37Q54.31-0.10 55.49 0.18L55.49 0.18Q57.47 0.68 59.07 1.25Q60.66 1.81 61.77 2.64Q62.88 3.47 63.48 4.67Q64.08 5.88 64.08 7.66Z"/><path fill="#000000" opacity="1" d="M80.33 10.17L81.31 13.99Q80.33 14.30 79.10 14.48Q77.87 14.67 76.76 14.67L76.76 14.67Q74.89 14.67 73.57 14.22Q72.26 13.78 71.42 12.85Q70.58 11.93 70.19 10.49Q69.80 9.06 69.80 7.10L69.80 7.10L69.80-5.02L66.73-5.02L66.73-8.82L69.80-8.82L69.80-15.17L74.48-15.17L74.48-8.82L80.00-8.82L80.00-5.02L74.48-5.02L74.48 6.38Q74.48 7.60 74.62 8.44Q74.76 9.27 75.09 9.80Q75.41 10.32 75.95 10.56Q76.48 10.80 77.24 10.80L77.24 10.80Q78.00 10.80 78.85 10.61Q79.70 10.43 80.33 10.17L80.33 10.17Z"/><path fill="#000000" opacity="1" d="M91.10 11.36L91.10 11.36Q91.10 12.97 90.36 13.64Q89.62 14.30 87.98 14.30L87.98 14.30Q87.09 14.30 86.51 14.10Q85.92 13.91 85.56 13.54Q85.20 13.17 85.05 12.61Q84.90 12.06 84.90 11.36L84.90 11.36Q84.90 9.82 85.59 9.10Q86.29 8.38 87.98 8.38L87.98 8.38Q89.70 8.38 90.40 9.09Q91.10 9.80 91.10 11.36Z"/><path fill="#000000" opacity="1" d="M116.65 13.99L111.98 13.99L111.98 10.84Q111.22 11.60 110.31 12.30Q109.41 12.99 108.40 13.52Q107.39 14.04 106.31 14.35Q105.23 14.67 104.15 14.67L104.15 14.67Q102.23 14.67 100.95 14.12Q99.67 13.58 98.89 12.53Q98.12 11.47 97.79 9.94Q97.47 8.40 97.47 6.42L97.47 6.42L97.47-8.82L102.14-8.82L102.14 4.18Q102.14 5.90 102.25 7.09Q102.36 8.27 102.71 9.00Q103.06 9.73 103.71 10.06Q104.36 10.38 105.43 10.38L105.43 10.38Q106.15 10.38 106.96 10.10Q107.78 9.82 108.64 9.34Q109.50 8.86 110.35 8.22Q111.19 7.58 111.98 6.86L111.98 6.86L111.98-8.82L116.65-8.82L116.65 13.99Z"/><path fill="#000000" opacity="1" d="M138.84 13.99L121.61 13.99L121.61 10.51L132.88-5.02L121.87-5.02L121.87-8.82L138.49-8.82L138.49-5.43L127.18 10.21L138.84 10.21L138.84 13.99Z"/></g><g transform="matrix(1 0 0 1 250.73319384074256 399.09767430976615)" style=""  ><path fill="#000000" opacity="1" d="M-168.26 4.33C-168.26 4.33-167.21 5.59-165.19 5.59C-163.11 5.59-161.79 4.21-161.79 2.28C-161.79-1.07-166.61-0.87-166.61-3.33C-166.61-4.32-165.78-4.87-164.97-4.87C-163.67-4.87-162.58-4.12-162.54-4.03L-162.10-5.28C-162.61-5.61-163.57-6.09-164.92-6.09C-166.85-6.09-168.22-4.63-168.22-2.87C-168.22 0.16-163.31 0.24-163.31 2.50C-163.31 3.70-164.17 4.36-165.14 4.36C-166.84 4.36-168.08 2.86-168.08 2.86C-168.08 2.86-168.24 4.31-168.26 4.33Z"/><path fill="#000000" opacity="1" d="M-157.65-4.77L-159.26-4.58L-159.26-3.04L-160.30-3.04L-160.30-1.88L-159.26-1.88L-159.26 2.99C-159.26 4.88-158.34 5.59-157.23 5.59C-156.44 5.59-155.53 5.41-154.80 4.82L-155.04 3.52C-155.48 3.95-156.23 4.23-156.88 4.23C-157.41 4.23-157.82 3.94-157.82 3.13L-157.82-1.88L-155.72-1.88L-155.21-3.04L-157.82-3.04Z"/><path fill="#000000" opacity="1" d="M-152.76-0.85C-152.76-0.85-151.91-2.14-150.33-2.14C-149.63-2.14-149.05-1.67-149.05-0.31L-149.05 0.31C-151.87 0.31-153.86 1.58-153.86 3.47C-153.86 4.74-152.81 5.59-151.65 5.59C-150.59 5.59-149.39 4.89-148.93 4.19C-148.92 4.94-148.44 5.59-148.44 5.59L-146.85 5.37C-146.85 5.37-147.62 4.47-147.62 3.44L-147.62-1.09C-147.62-2.70-148.85-3.28-150.18-3.28C-152.44-3.28-153.53-1.96-153.53-1.96ZM-151.02 4.36C-151.92 4.36-152.32 3.76-152.32 3.22C-152.32 1.47-149.50 1.42-149.05 1.40L-149.05 3.30C-149.39 3.70-150.27 4.36-151.02 4.36Z"/><path fill="#000000" opacity="1" d="M-139.24-2.82C-139.54-3.14-139.92-3.30-140.31-3.30C-141.87-3.30-142.66-1.93-142.98-1.35L-142.98-3.23L-144.64-3.04L-144.42-1.47L-144.42 5.37L-142.81 5.37L-142.98 4.09L-142.98 1.01C-142.98-0.51-141.78-1.78-140.69-1.78C-140.45-1.78-140.09-1.66-139.82-1.42Z"/><path fill="#000000" opacity="1" d="M-136.09-4.77L-137.70-4.58L-137.70-3.04L-138.74-3.04L-138.74-1.88L-137.70-1.88L-137.70 2.99C-137.70 4.88-136.77 5.59-135.66 5.59C-134.88 5.59-133.97 5.41-133.23 4.82L-133.47 3.52C-133.92 3.95-134.67 4.23-135.32 4.23C-135.85 4.23-136.26 3.94-136.26 3.13L-136.26-1.88L-134.16-1.88L-133.64-3.04L-136.26-3.04Z"/><path fill="#000000" opacity="1" d="M-126.17 4.11C-126.17 4.89-125.68 5.59-125.68 5.59L-124.09 5.37C-124.09 5.37-124.86 4.47-124.86 3.44L-124.86-3.23L-126.51-3.04L-126.29-1.47L-126.29 2.98C-126.29 2.98-127.11 4.26-128.91 4.26C-129.97 4.26-130.16 3.49-130.16 1.87L-130.16-3.23L-131.82-3.04L-131.59-1.47L-131.59 3.58C-131.59 4.94-130.48 5.59-129.35 5.59C-128.22 5.59-126.84 4.96-126.17 4.11Z"/><path fill="#000000" opacity="1" d="M-121.67 9.48L-120.07 9.48L-120.24 8.19L-120.24 5.49C-119.76 5.54-119.28 5.59-118.90 5.59C-116.44 5.59-114.73 3.44-114.73 0.98C-114.73-1.76-116.17-3.26-117.81-3.26C-119.42-3.26-120.24-2.22-120.24-2.22L-120.24-3.23L-121.90-3.04L-121.67-1.47ZM-120.24 4.36L-120.24-0.94C-120.24-0.94-119.45-2.05-118.31-2.05C-117.18-2.05-116.32-0.80-116.32 1.13C-116.32 2.93-117.37 4.48-118.63 4.48C-119.30 4.48-120.27 4.36-120.24 4.36Z"/><path fill="#000000" opacity="1" d="M-110.78-7.54L-112.44-7.35L-112.22-5.78L-112.22 5.37L-110.61 5.37L-110.78 4.09Z"/><path fill="#000000" opacity="1" d="M-107.23-0.85C-107.23-0.85-106.37-2.14-104.80-2.14C-104.10-2.14-103.51-1.67-103.51-0.31L-103.51 0.31C-106.34 0.31-108.32 1.58-108.32 3.47C-108.32 4.74-107.28 5.59-106.11 5.59C-105.05 5.59-103.86 4.89-103.39 4.19C-103.38 4.94-102.90 5.59-102.90 5.59L-101.31 5.37C-101.31 5.37-102.08 4.47-102.08 3.44L-102.08-1.09C-102.08-2.70-103.31-3.28-104.64-3.28C-106.90-3.28-107.99-1.96-107.99-1.96ZM-105.48 4.36C-106.39 4.36-106.78 3.76-106.78 3.22C-106.78 1.47-103.96 1.42-103.51 1.40L-103.51 3.30C-103.86 3.70-104.73 4.36-105.48 4.36Z"/><path fill="#000000" opacity="1" d="M-93.70-2.82C-94.01-3.14-94.38-3.30-94.78-3.30C-96.33-3.30-97.12-1.93-97.44-1.35L-97.44-3.23L-99.10-3.04L-98.88-1.47L-98.88 5.37L-97.27 5.37L-97.44 4.09L-97.44 1.01C-97.44-0.51-96.25-1.78-95.15-1.78C-94.91-1.78-94.55-1.66-94.28-1.42Z"/><path fill="#000000" opacity="1" d=""/><path fill="#000000" opacity="1" d="M-81.23-3.26L-82.74-3.04L-84.89 2.43L-85.25 3.68L-85.51 2.43L-87.47-3.26L-89.15-3.04L-88.40-1.62L-86.06 5.37L-84.77 5.59Z"/><path fill="#000000" opacity="1" d="M-79.20-0.85C-79.20-0.85-78.34-2.14-76.77-2.14C-76.07-2.14-75.49-1.67-75.49-0.31L-75.49 0.31C-78.31 0.31-80.29 1.58-80.29 3.47C-80.29 4.74-79.25 5.59-78.09 5.59C-77.03 5.59-75.83 4.89-75.37 4.19C-75.35 4.94-74.87 5.59-74.87 5.59L-73.28 5.37C-73.28 5.37-74.05 4.47-74.05 3.44L-74.05-1.09C-74.05-2.70-75.28-3.28-76.62-3.28C-78.87-3.28-79.97-1.96-79.97-1.96ZM-77.45 4.36C-78.36 4.36-78.75 3.76-78.75 3.22C-78.75 1.47-75.93 1.42-75.49 1.40L-75.49 3.30C-75.83 3.70-76.70 4.36-77.45 4.36Z"/><path fill="#000000" opacity="1" d=""/><path fill="#000000" opacity="1" d="M-64.41-5.88L-66.17-5.88L-65.95-4.31L-65.95 5.37L-64.24 5.37L-64.41 4.09Z"/><path fill="#000000" opacity="1" d="M-53.99 5.37L-54.16 4.12L-54.16-1.26C-54.16-2.63-55.28-3.28-56.40-3.28C-57.53-3.28-58.75-2.73-59.47-1.95L-59.47-3.23L-61.12-3.04L-60.90-1.47L-60.90 5.37L-59.29 5.37L-59.47 4.09L-59.47-0.68C-59.47-0.68-58.64-1.95-56.85-1.95C-55.79-1.95-55.60-1.18-55.60 0.45L-55.60 5.37Z"/><path fill="#000000" opacity="1" d="M-44.57-3.26L-46.08-3.04L-48.23 2.43L-48.59 3.68L-48.85 2.43L-50.81-3.26L-52.49-3.04L-51.74-1.62L-49.39 5.37L-48.11 5.59Z"/><path fill="#000000" opacity="1" d="M-39.82-3.30C-42.43-3.30-43.60-1.09-43.60 1.32C-43.60 3.44-42.31 5.59-40.07 5.59C-37.95 5.59-36.74 4.41-36.74 4.41L-36.98 3.11C-36.98 3.11-38.21 4.28-39.66 4.28C-41.32 4.28-42.04 2.70-42.07 1.17L-37.30 1.17L-36.91 0.72C-36.94-0.34-37.15-3.30-39.82-3.30ZM-40.02-2.19C-38.84-2.19-38.52-0.82-38.47 0.07L-41.99 0.07C-41.75-1.16-41.19-2.19-40.02-2.19Z"/><path fill="#000000" opacity="1" d="M-35.13 4.60C-35.13 4.60-34.31 5.59-32.57 5.59C-30.75 5.59-29.59 4.52-29.59 2.99C-29.59 0.24-33.76 0.64-33.76-1.19C-33.76-1.76-33.20-2.20-32.50-2.20C-31.87-2.20-30.98-2.03-30.31-1.35L-29.90-2.72C-30.33-2.97-31.04-3.30-32.36-3.30C-33.97-3.30-35.22-2.32-35.22-0.78C-35.22 1.76-31.04 1.68-31.04 3.22C-31.04 4.07-31.73 4.36-32.55 4.36C-34.00 4.36-34.98 3.22-34.98 3.22Z"/><path fill="#000000" opacity="1" d="M-25.44-4.77L-27.04-4.58L-27.04-3.04L-28.09-3.04L-28.09-1.88L-27.04-1.88L-27.04 2.99C-27.04 4.88-26.12 5.59-25.01 5.59C-24.22 5.59-23.32 5.41-22.58 4.82L-22.82 3.52C-23.26 3.95-24.02 4.23-24.67 4.23C-25.20 4.23-25.61 3.94-25.61 3.13L-25.61-1.88L-23.50-1.88L-22.99-3.04L-25.61-3.04Z"/><path fill="#000000" opacity="1" d="M-21.64 1.30C-21.64 1.58-21.55 5.59-18.03 5.59C-15.40 5.59-13.86 3.44-13.86 0.98C-13.86-1.93-15.40-3.30-17.45-3.30C-20.05-3.30-21.64-1.35-21.64 1.30ZM-20.07 1.15C-20.07-0.65-19.19-2.15-17.76-2.15C-16.32-2.15-15.43-0.65-15.43 1.15C-15.43 2.94-16.32 4.45-17.76 4.45C-19.19 4.45-20.07 2.94-20.07 1.15Z"/><path fill="#000000" opacity="1" d="M-6.22-2.82C-6.52-3.14-6.90-3.30-7.29-3.30C-8.85-3.30-9.64-1.93-9.96-1.35L-9.96-3.23L-11.62-3.04L-11.40-1.47L-11.40 5.37L-9.79 5.37L-9.96 4.09L-9.96 1.01C-9.96-0.51-8.76-1.78-7.67-1.78C-7.43-1.78-7.07-1.66-6.80-1.42Z"/><path fill="#000000" opacity="1" d="M-3.33-7.54L-4.98-7.35L-4.76-5.78L-4.76 5.37L-3.15 5.37L-3.33 4.09Z"/><path fill="#000000" opacity="1" d="M0.23-0.85C0.23-0.85 1.09-2.14 2.66-2.14C3.36-2.14 3.94-1.67 3.94-0.31L3.94 0.31C1.12 0.31-0.86 1.58-0.86 3.47C-0.86 4.74 0.18 5.59 1.34 5.59C2.40 5.59 3.60 4.89 4.06 4.19C4.08 4.94 4.56 5.59 4.56 5.59L6.15 5.37C6.15 5.37 5.38 4.47 5.38 3.44L5.38-1.09C5.38-2.70 4.15-3.28 2.81-3.28C0.56-3.28-0.54-1.96-0.54-1.96ZM1.98 4.36C1.07 4.36 0.68 3.76 0.68 3.22C0.68 1.47 3.50 1.42 3.94 1.40L3.94 3.30C3.60 3.70 2.73 4.36 1.98 4.36Z"/><path fill="#000000" opacity="1" d="M13.76-2.82C13.45-3.14 13.07-3.30 12.68-3.30C11.12-3.30 10.34-1.93 10.01-1.35L10.01-3.23L8.35-3.04L8.58-1.47L8.58 5.37L10.18 5.37L10.01 4.09L10.01 1.01C10.01-0.51 11.21-1.78 12.30-1.78C12.54-1.78 12.90-1.66 13.18-1.42Z"/><path fill="#000000" opacity="1" d="M22.12 5.37L21.95 4.12L21.95-1.26C21.95-2.63 20.84-3.28 19.71-3.28C18.58-3.28 17.37-2.73 16.65-1.95L16.65-3.23L14.99-3.04L15.21-1.47L15.21 5.37L16.82 5.37L16.65 4.09L16.65-0.68C16.65-0.68 17.47-1.95 19.26-1.95C20.32-1.95 20.51-1.18 20.51 0.45L20.51 5.37Z"/><path fill="#000000" opacity="1" d="M24.89-5.59C24.89-5.11 25.28-4.67 25.78-4.67C26.24-4.67 26.65-5.11 26.65-5.59C26.65-6.07 26.24-6.48 25.78-6.48C25.28-6.48 24.89-6.07 24.89-5.59ZM26.58-3.23L24.92-3.04L25.15-1.47L25.15 5.37L26.75 5.37L26.58 4.09Z"/><path fill="#000000" opacity="1" d=""/><path fill="#000000" opacity="1" d="M34.19-7.37L34.41-5.79L34.41 4.28C34.76 4.98 35.92 5.59 37.18 5.59C39.65 5.59 41.36 3.44 41.36 0.98C41.36-1.93 39.65-3.26 37.94-3.26C37.08-3.26 36.40-2.85 35.85-2.49L35.85-7.56ZM35.85-1.38C35.85-1.40 36.76-2.12 37.54-2.12C38.83-2.12 39.77-0.60 39.77 1.13C39.77 2.93 38.72 4.48 37.46 4.48C36.81 4.48 36.19 4.21 35.85 3.85Z"/><path fill="#000000" opacity="1" d="M43.56-5.59C43.56-5.11 43.96-4.67 44.45-4.67C44.91-4.67 45.32-5.11 45.32-5.59C45.32-6.07 44.91-6.48 44.45-6.48C43.96-6.48 43.56-6.07 43.56-5.59ZM45.26-3.23L43.60-3.04L43.82-1.47L43.82 5.37L45.43 5.37L45.26 4.09Z"/><path fill="#000000" opacity="1" d="M53.69-2.82C53.38-3.14 53.00-3.30 52.61-3.30C51.05-3.30 50.27-1.93 49.94-1.35L49.94-3.23L48.28-3.04L48.50-1.47L48.50 5.37L50.11 5.37L49.94 4.09L49.94 1.01C49.94-0.51 51.14-1.78 52.23-1.78C52.47-1.78 52.83-1.66 53.10-1.42Z"/><path fill="#000000" opacity="1" d="M56.58-7.54L54.92-7.35L55.14-5.78L55.14 5.37L56.75 5.37L56.58 4.09Z"/><path fill="#000000" opacity="1" d="M60.13-0.85C60.13-0.85 60.99-2.14 62.56-2.14C63.26-2.14 63.84-1.67 63.84-0.31L63.84 0.31C61.02 0.31 59.04 1.58 59.04 3.47C59.04 4.74 60.08 5.59 61.24 5.59C62.30 5.59 63.50 4.89 63.96 4.19C63.98 4.94 64.46 5.59 64.46 5.59L66.05 5.37C66.05 5.37 65.28 4.47 65.28 3.44L65.28-1.09C65.28-2.70 64.05-3.28 62.71-3.28C60.46-3.28 59.36-1.96 59.36-1.96ZM61.88 4.36C60.97 4.36 60.58 3.76 60.58 3.22C60.58 1.47 63.40 1.42 63.84 1.40L63.84 3.30C63.50 3.70 62.63 4.36 61.88 4.36Z"/><path fill="#000000" opacity="1" d="M67.78 4.60C67.78 4.60 68.60 5.59 70.34 5.59C72.15 5.59 73.32 4.52 73.32 2.99C73.32 0.24 69.14 0.64 69.14-1.19C69.14-1.76 69.71-2.20 70.41-2.20C71.04-2.20 71.93-2.03 72.60-1.35L73.01-2.72C72.58-2.97 71.86-3.30 70.55-3.30C68.94-3.30 67.69-2.32 67.69-0.78C67.69 1.76 71.86 1.68 71.86 3.22C71.86 4.07 71.18 4.36 70.36 4.36C68.90 4.36 67.93 3.22 67.93 3.22Z"/><path fill="#000000" opacity="1" d="M82.69 5.37L82.52 4.12L82.52-1.26C82.52-2.63 81.40-3.28 80.28-3.28C79.15-3.28 77.93-2.73 77.21-1.95L77.21-7.54L75.56-7.35L75.78-5.78L75.78 5.37L77.39 5.37L77.21 4.09L77.21-0.68C77.21-0.68 78.04-1.95 79.83-1.95C80.89-1.95 81.08-1.18 81.08 0.45L81.08 5.37Z"/><path fill="#000000" opacity="1" d="M87.36-4.77L85.75-4.58L85.75-3.04L84.70-3.04L84.70-1.88L85.75-1.88L85.75 2.99C85.75 4.88 86.67 5.59 87.78 5.59C88.57 5.59 89.48 5.41 90.21 4.82L89.97 3.52C89.53 3.95 88.77 4.23 88.12 4.23C87.59 4.23 87.18 3.94 87.18 3.13L87.18-1.88L89.29-1.88L89.80-3.04L87.18-3.04Z"/><path fill="#000000" opacity="1" d="M91.68-5.59C91.68-5.11 92.07-4.67 92.57-4.67C93.03-4.67 93.44-5.11 93.44-5.59C93.44-6.07 93.03-6.48 92.57-6.48C92.07-6.48 91.68-6.07 91.68-5.59ZM93.37-3.23L91.72-3.04L91.94-1.47L91.94 5.37L93.55 5.37L93.37 4.09Z"/><path fill="#000000" opacity="1" d="M101.80-2.82C101.50-3.14 101.12-3.30 100.73-3.30C99.17-3.30 98.38-1.93 98.06-1.35L98.06-3.23L96.40-3.04L96.62-1.47L96.62 5.37L98.23 5.37L98.06 4.09L98.06 1.01C98.06-0.51 99.26-1.78 100.35-1.78C100.59-1.78 100.95-1.66 101.22-1.42Z"/><path fill="#000000" opacity="1" d="M108.59 4.11C108.59 4.89 109.09 5.59 109.09 5.59L110.68 5.37C110.68 5.37 109.91 4.47 109.91 3.44L109.91-3.23L108.25-3.04L108.47-1.47L108.47 2.98C108.47 2.98 107.65 4.26 105.86 4.26C104.80 4.26 104.61 3.49 104.61 1.87L104.61-3.23L102.95-3.04L103.17-1.47L103.17 3.58C103.17 4.94 104.28 5.59 105.41 5.59C106.54 5.59 107.93 4.96 108.59 4.11Z"/><path fill="#000000" opacity="1" d="M119.49-3.26L117.98-3.04L115.83 2.43L115.47 3.68L115.21 2.43L113.24-3.26L111.57-3.04L112.32-1.62L114.66 5.37L115.95 5.59Z"/><path fill="#000000" opacity="1" d="M127.16-2.10C126.53-2.87 125.61-3.30 124.38-3.30C121.76-3.30 120.43-1.09 120.43 1.32C120.43 3.44 121.71 5.59 123.95 5.59C126.07 5.59 127.16 4.41 127.16 4.41L126.92 3.11C126.92 3.11 125.81 4.28 124.36 4.28C122.67 4.28 121.93 2.62 121.93 1.05C121.93-0.56 122.79-2.10 124.34-2.10C125.03-2.10 125.71-1.74 126.26-0.96Z"/><path fill="#000000" opacity="1" d="M136.33 5.37L136.16 4.12L136.16-1.26C136.16-2.63 135.05-3.28 133.92-3.28C132.79-3.28 131.58-2.73 130.86-1.95L130.86-7.54L129.20-7.35L129.42-5.78L129.42 5.37L131.03 5.37L130.86 4.09L130.86-0.68C130.86-0.68 131.68-1.95 133.47-1.95C134.53-1.95 134.72-1.18 134.72 0.45L134.72 5.37Z"/><path fill="#000000" opacity="1" d="M139.05-5.59C139.05-5.11 139.44-4.67 139.94-4.67C140.40-4.67 140.81-5.11 140.81-5.59C140.81-6.07 140.40-6.48 139.94-6.48C139.44-6.48 139.05-6.07 139.05-5.59ZM140.74-3.23L139.08-3.04L139.30-1.47L139.30 5.37L140.91 5.37L140.74 4.09Z"/><path fill="#000000" opacity="1" d=""/><path fill="#000000" opacity="1" d="M148.35-5.59C148.35-5.11 148.74-4.67 149.24-4.67C149.70-4.67 150.11-5.11 150.11-5.59C150.11-6.07 149.70-6.48 149.24-6.48C148.74-6.48 148.35-6.07 148.35-5.59ZM150.04-3.23L148.38-3.04L148.61-1.47L148.61 5.58C148.61 7.36 148.01 8.35 146.64 8.35L147.21 9.53C148.83 9.51 150.04 7.95 150.04 5.58Z"/><path fill="#000000" opacity="1" d="M152.44 1.30C152.44 1.58 152.52 5.59 156.05 5.59C158.68 5.59 160.22 3.44 160.22 0.98C160.22-1.93 158.68-3.30 156.63-3.30C154.03-3.30 152.44-1.35 152.44 1.30ZM154.01 1.15C154.01-0.65 154.88-2.15 156.32-2.15C157.76-2.15 158.64-0.65 158.64 1.15C158.64 2.94 157.76 4.45 156.32 4.45C154.88 4.45 154.01 2.94 154.01 1.15Z"/><path fill="#000000" opacity="1" d="M169.08-3.26L167.57-3.04L165.42 2.43L165.06 3.68L164.84 2.43L162.83-3.26L161.16-3.04L161.91-1.62L164.25 5.30L163.89 6.24C163.42 7.49 162.58 8.06 161.69 8.06C161.40 8.06 161.11 7.99 160.82 7.89L161.06 9.34C161.36 9.46 161.65 9.53 161.95 9.53C163.16 9.53 164.32 8.59 165.04 6.81Z"/></g>
</svg>
