<?xml version="1.0" encoding="UTF-8" standalone="no" ?>
<!DOCTYPE svg PUBLIC "-//W3C//DTD SVG 1.1//EN" "http://www.w3.org/Graphics/SVG/1.1/DTD/svg11.dtd">
<svg xmlns="http://www.w3.org/2000/svg" xmlns:xlink="http://www.w3.org/1999/xlink" version="1.1" width="500" height="500" viewBox="0 0 500 500" xml:space="preserve">
<desc>Created with Fabric.js 3.6.3</desc>
    <defs>
</defs>
    <g transform="matrix(0.41444467676599633 -1.0151e-16 1.0151e-16 0.41444467676599633 250.47580434218324 197.61116919149913)"  >
<path style="stroke: none; stroke-width: 0; stroke-dasharray: none; stroke-linecap: round; stroke-dashoffset: 0; stroke-linejoin: round; stroke-miterlimit: 4; fill: rgb(0,0,0); fill-rule: nonzero; opacity: 1;"  transform=" translate(-347.214464, -408.15557)" d="m 239.32338 158.15557 c -78.60067 0 -142.108912 63.50635 -142.108912 142.10701 l 0 215.78407 c 0 78.60067 63.508242 142.10892 142.108912 142.10892 l 215.78217 0 c 78.60067 0 142.10891 -63.50825 142.10891 -142.10892 l 0 -215.78407 c 0 -78.60066 -63.50824 -142.10701 -142.10891 -142.10701 l -215.78217 0 z" stroke-linecap="round" />
</g>
    <g transform="matrix(1.4342541896840266 0 0 1.4342541896840266 250.47580434218327 197.61116919149913)"  >
<path style="stroke: none; stroke-width: 0; stroke-dasharray: none; stroke-linecap: butt; stroke-dashoffset: 0; stroke-linejoin: miter; stroke-miterlimit: 4; fill: rgb(255,255,255); fill-rule: evenodd; opacity: 1;"  transform=" translate(-50.000253242596635, -50.00425904911092)" d="m 39.871 39.953 c 2.8984 -5.5781 6.6953 -10.797 11.121 -15.445 c -10.105 -4.375 -19.098 6.3203 -25.383 13.211 c 6.8398 0.023438 10.316 0.24609 14.258 2.2344 z m 7.1055 -6.6562 c 6.0938 -8.4141 14.34 -15.605 23.254 -20.203 c 3.9414 7.0039 9.6445 12.766 16.699 16.656 c -6.0234 11.688 -16.484 22.211 -28.359 28.289 l -16.602 -16.602 c 1.4062 -2.7461 3.0781 -5.4766 5.0078 -8.1406 z m 5.9141 -10.707 c 10.641 -10.367 26.004 -18.613 40.836 -17.484 c 0.64063 0.046875 1.1367 0.56641 1.1758 1.1914 c 1.0195 14.664 -6.75 29.801 -17.484 40.82 c 5.9102 11.586 -4.7188 21.254 -12.145 28 c -1.2344 1.125 -2.3789 2.1602 -3.3516 3.1367 c -0.87109 0.87109 -2.1719 0.23438 -2.1719 -1.1289 c 0 -7.9453 0 -11.621 -1.7578 -15.406 l -4.7461 4.7422 c -0.49609 0.49609 -1.3047 0.49609 -1.8047 0 l -17.898 -17.898 c -0.49609 -0.49609 -0.49609 -1.3047 0 -1.8047 l 4.7422 -4.7422 c -4.4961 -2.0859 -10.547 -1.7539 -15.406 -1.7539 c -1.707 0 -1.7578 -1.5469 -1.1289 -2.1758 c 0.97266 -0.97266 2.0117 -2.1172 3.1367 -3.3516 c 6.7461 -7.4219 16.414 -18.055 28 -12.145 z m 19.629 -10.613 c 3.6875 6.5 8.9844 11.859 15.523 15.488 c 3.0469 -6.625 4.6445 -13.723 4.3867 -19.883 c -6.8047 -0.28516 -13.762 1.5625 -19.906 4.3945 z m 2.9766 37.039 c -4.6484 4.4258 -9.8672 8.2266 -15.445 11.121 c 1.9883 3.9453 2.2109 7.4219 2.2344 14.258 c 6.8906 -6.2812 17.586 -15.273 13.211 -25.379 z m -18.988 10.574 l -16.094 -16.094 l -4.1641 4.1641 l 16.094 16.094 z m -32.223 16.129 l 18.168 -7.2773 l -10.887 -10.887 l -7.2773 18.168 z m -1.8125 3.4648 l 22.719 -9.1016 c 0.85156 -0.33984 1.0586 -1.4492 0.42578 -2.0781 l -13.613 -13.617 c -0.625 -0.625 -1.7617 -0.47656 -2.1172 0.51172 l -9.0703 22.633 c -0.42188 1.0508 0.64844 2.0586 1.6523 1.6523 z m 48.477 -50.129 c -3.2969 -3.2969 -8.6406 -3.2969 -11.934 0 c -5.3008 5.3008 -1.5312 14.406 5.9688 14.406 c 7.4961 0 11.27 -9.1055 5.9688 -14.406 z m -0.078125 5.9688 c 0 -5.2344 -6.3555 -7.8594 -10.055 -4.1641 c -3.6953 3.6953 -1.0703 10.055 4.1641 10.055 c 3.2539 0 5.8906 -2.6367 5.8906 -5.8906 z m -48.168 13.809 l -14.938 14.938 c -1.1875 1.1875 0.61719 2.9883 1.8047 1.8047 l 14.938 -14.938 c 1.1875 -1.1875 -0.61719 -2.9883 -1.8047 -1.8047 z m -9.3555 -2.9297 c 1.1875 -1.1875 2.9883 0.61719 1.8047 1.8047 l -7.7461 7.7461 c -1.1875 1.1875 -2.9883 -0.61719 -1.8047 -1.8047 z m 3.375 18.293 c 1.1875 -1.1875 2.9883 0.61719 1.8047 1.8047 l -11.328 11.328 c -1.1875 1.1875 -2.9883 -0.61719 -1.8047 -1.8047 z m 32.652 11.309 l -14.938 14.938 c -1.1875 1.1875 0.61719 2.9883 1.8047 1.8047 l 14.938 -14.938 c 1.1875 -1.1875 -0.61719 -2.9883 -1.8047 -1.8047 z m 2.9297 9.3555 c 1.1875 -1.1875 2.9883 0.61719 1.8047 1.8047 l -7.7461 7.7461 c -1.1875 1.1875 -2.9883 -0.61719 -1.8047 -1.8047 z m -18.293 -3.375 c 1.1875 -1.1875 2.9883 0.61719 1.8047 1.8047 l -11.328 11.328 c -1.1875 1.1875 -2.9883 -0.61719 -1.8047 -1.8047 z" stroke-linecap="round" />
</g>
</svg>
